<?xml version="1.0" encoding="utf-8"?>
<!-- Generator: Adobe Illustrator 24.1.1, SVG Export Plug-In . SVG Version: 6.00 Build 0)  -->
<svg version="1.1" id="Layer_1" xmlns="http://www.w3.org/2000/svg" xmlns:xlink="http://www.w3.org/1999/xlink" x="0px" y="0px"
	 width="32px" height="32px" viewBox="0 0 24 24" style="enable-background:new 0 0 24 24;" xml:space="preserve">
<style type="text/css">
	.st0{fill:#E2E5EC;}
</style>
<path class="st0" d="M20.9,8.3c0-0.8-0.2-1.5-0.4-2.2c-0.5-1.2-1.4-2.2-2.6-2.6c-0.7-0.3-1.4-0.4-2.2-0.4C14.7,3,14.4,3,12,3
	S9.2,3,8.3,3c-0.7,0-1.5,0.2-2.2,0.4C4.9,3.9,3.9,4.9,3.5,6.1C3.2,6.8,3.1,7.5,3.1,8.3C3,9.2,3,9.5,3,12s0,2.8,0.1,3.7
	c0,0.7,0.2,1.5,0.4,2.2c0.5,1.2,1.4,2.2,2.6,2.6c0.7,0.3,1.4,0.4,2.2,0.5c1,0,1.3,0.1,3.7,0.1s2.8,0,3.7-0.1c0.7,0,1.5-0.2,2.2-0.4
	c1.2-0.5,2.2-1.4,2.6-2.6c0.3-0.7,0.4-1.4,0.4-2.2c0-1,0.1-1.3,0.1-3.7C21,9.6,21,9.3,20.9,8.3z M12,16.6c-2.6,0-4.6-2.1-4.6-4.6
	S9.4,7.4,12,7.4c2.6,0,4.6,2.1,4.6,4.6S14.5,16.6,12,16.6z M16.8,8.3c-0.6,0-1.1-0.5-1.1-1.1s0.5-1.1,1.1-1.1c0.6,0,1.1,0.5,1.1,1.1
	S17.4,8.3,16.8,8.3z"/>
<circle class="st0" cx="12" cy="12" r="3"/>
</svg>
