<?xml version="1.0" encoding="utf-8"?>
<!-- Generator: Adobe Illustrator 24.1.1, SVG Export Plug-In . SVG Version: 6.00 Build 0)  -->
<svg version="1.1" id="Layer_1" xmlns="http://www.w3.org/2000/svg" xmlns:xlink="http://www.w3.org/1999/xlink" x="0px" y="0px" 
	 width="32px" height="32px" viewBox="0 0 24 24" style="enable-background:new 0 0 24 24;" xml:space="preserve">
<style type="text/css">
	.st0{fill:#E2E5EC;}
</style>
<path class="st0" d="M20,3H4C3.4,3,3,3.4,3,4v16c0,0.6,0.4,1,1,1h16c0.6,0,1-0.4,1-1V4C21,3.4,20.6,3,20,3z M8.3,18.3H5.7V9.7h2.7
	V18.3z M7,8.6C6.1,8.6,5.5,7.9,5.5,7S6.1,5.5,7,5.5c0.9,0,1.5,0.7,1.5,1.5S7.9,8.6,7,8.6z M18.3,18.3h-2.7v-4.2c0-1,0-2.3-1.4-2.3
	c-1.4,0-1.6,1.1-1.6,2.2v4.2H10V9.7h2.6v1.2h0c0.4-0.7,1.2-1.4,2.5-1.4c2.7,0,3.2,1.8,3.2,4.1L18.3,18.3L18.3,18.3z"/>
</svg>
